<svg xmlns="http://www.w3.org/2000/svg" width="128" height="128" viewBox="0 0 128 128" fill="none">
  <rect width="128" height="128" rx="28" fill="#0B2AE0"/>
  <g transform="translate(64 64) scale(0.4) translate(-133.5 -136.5)" fill="#FFFFFF">
    <path fill-rule="evenodd" clip-rule="evenodd" d="M 131 8 L 125 13 L 125 15 L 124 16 L 124 21 L 125 22 L 125 24 L 129 28 L 131 28 L 133 30 L 133 119 L 131 121 L 128 121 L 125 116 L 125 114 L 123 111 L 123 109 L 121 106 L 121 104 L 115 92 L 113 85 L 109 78 L 109 76 L 106 71 L 106 69 L 101 60 L 101 58 L 93 42 L 92 38 L 95 35 L 97 31 L 96 25 L 95 23 L 90 19 L 83 19 L 77 24 L 76 26 L 76 32 L 78 36 L 82 39 L 85 39 L 86 40 L 88 39 L 90 41 L 92 45 L 92 47 L 97 56 L 97 58 L 102 67 L 102 69 L 106 76 L 108 83 L 113 92 L 113 94 L 116 99 L 116 101 L 122 113 L 122 115 L 124 118 L 125 122 L 122 125 L 120 125 L 102 106 L 101 106 L 64 69 L 63 69 L 57 63 L 58 61 L 58 53 L 54 48 L 47 46 L 42 48 L 38 53 L 38 60 L 40 64 L 45 67 L 52 67 L 55 65 L 105 114 L 106 114 L 119 127 L 119 128 L 117 131 L 110 130 L 93 122 L 91 122 L 88 120 L 86 120 L 83 118 L 81 118 L 78 116 L 73 115 L 68 112 L 66 112 L 63 110 L 61 110 L 58 108 L 51 106 L 46 103 L 39 101 L 35 98 L 35 94 L 31 88 L 26 86 L 23 86 L 22 87 L 20 87 L 16 91 L 16 93 L 15 94 L 15 100 L 17 104 L 20 106 L 26 107 L 31 105 L 34 102 L 37 102 L 40 104 L 42 104 L 45 106 L 52 108 L 57 111 L 67 114 L 72 117 L 74 117 L 77 119 L 79 119 L 82 121 L 84 121 L 87 123 L 89 123 L 92 125 L 99 127 L 104 130 L 111 132 L 115 135 L 115 138 L 114 139 L 79 139 L 78 140 L 29 140 L 27 138 L 27 136 L 23 132 L 21 131 L 15 131 L 9 135 L 8 137 L 8 145 L 9 147 L 14 151 L 21 151 L 23 150 L 30 142 L 114 142 L 115 143 L 115 146 L 113 148 L 109 150 L 107 150 L 91 158 L 89 158 L 78 164 L 76 164 L 71 167 L 69 167 L 51 176 L 49 176 L 40 181 L 37 181 L 33 178 L 25 178 L 23 179 L 20 183 L 19 190 L 20 191 L 20 193 L 24 197 L 26 198 L 32 198 L 38 193 L 39 191 L 39 184 L 46 180 L 48 180 L 57 175 L 59 175 L 68 170 L 75 168 L 77 166 L 79 166 L 86 162 L 88 162 L 95 158 L 97 158 L 104 154 L 106 154 L 116 149 L 118 151 L 119 154 L 97 176 L 97 177 L 80 194 L 80 195 L 67 208 L 67 209 L 62 214 L 58 212 L 54 212 L 49 214 L 46 218 L 46 222 L 45 223 L 46 224 L 46 227 L 52 232 L 59 232 L 62 230 L 65 226 L 65 218 L 64 217 L 65 214 L 92 186 L 92 185 L 121 156 L 122 156 L 125 160 L 120 170 L 119 175 L 117 178 L 117 180 L 115 183 L 115 185 L 113 188 L 111 195 L 108 200 L 108 202 L 106 205 L 106 207 L 104 210 L 102 217 L 99 222 L 96 232 L 93 236 L 87 236 L 84 238 L 81 244 L 82 251 L 85 254 L 90 256 L 93 256 L 97 254 L 101 249 L 101 242 L 97 237 L 98 231 L 100 228 L 100 226 L 102 223 L 102 221 L 104 218 L 104 216 L 106 213 L 108 206 L 111 201 L 111 199 L 113 196 L 113 194 L 115 191 L 115 189 L 117 186 L 119 179 L 122 174 L 122 172 L 124 169 L 126 162 L 130 159 L 133 162 L 133 243 L 131 246 L 129 246 L 126 248 L 124 252 L 124 259 L 125 261 L 130 265 L 138 265 L 142 261 L 144 254 L 142 249 L 140 247 L 135 245 L 135 161 L 138 159 L 141 161 L 141 163 L 143 166 L 145 173 L 148 178 L 150 186 L 153 191 L 158 207 L 161 212 L 165 225 L 169 233 L 169 235 L 170 236 L 165 243 L 165 250 L 169 255 L 171 255 L 172 256 L 178 256 L 184 251 L 184 249 L 185 248 L 184 241 L 180 237 L 173 236 L 170 231 L 168 223 L 165 218 L 164 213 L 160 205 L 160 203 L 155 192 L 154 187 L 152 184 L 152 182 L 148 174 L 147 169 L 143 161 L 143 158 L 145 156 L 147 156 L 203 216 L 203 218 L 201 221 L 201 226 L 203 230 L 207 233 L 214 233 L 219 230 L 221 226 L 221 220 L 220 218 L 216 214 L 214 214 L 213 213 L 209 213 L 205 215 L 196 205 L 196 204 L 175 182 L 175 181 L 156 162 L 156 161 L 149 154 L 149 152 L 152 149 L 159 153 L 161 153 L 168 157 L 170 157 L 179 162 L 181 162 L 192 168 L 194 168 L 203 173 L 205 173 L 216 179 L 218 179 L 226 183 L 228 185 L 228 190 L 230 194 L 233 197 L 235 197 L 236 198 L 241 198 L 245 196 L 248 191 L 248 185 L 244 179 L 239 177 L 234 178 L 229 182 L 194 165 L 192 165 L 181 159 L 179 159 L 163 151 L 161 151 L 156 148 L 154 148 L 152 146 L 152 144 L 154 142 L 237 142 L 240 144 L 241 147 L 244 150 L 246 151 L 253 151 L 255 150 L 259 145 L 259 137 L 255 132 L 253 132 L 252 131 L 246 131 L 241 135 L 240 138 L 238 140 L 154 139 L 153 138 L 152 135 L 156 132 L 158 132 L 161 130 L 168 128 L 173 125 L 175 125 L 178 123 L 185 121 L 190 118 L 192 118 L 200 114 L 205 113 L 210 110 L 212 110 L 217 107 L 222 106 L 225 104 L 233 102 L 236 105 L 241 107 L 247 106 L 250 104 L 252 101 L 252 93 L 247 87 L 245 87 L 244 86 L 238 87 L 235 89 L 233 92 L 232 98 L 230 100 L 226 102 L 221 103 L 216 106 L 214 106 L 206 110 L 204 110 L 201 112 L 199 112 L 196 114 L 194 114 L 189 117 L 179 120 L 174 123 L 172 123 L 169 125 L 162 127 L 152 132 L 149 129 L 149 127 L 210 67 L 213 65 L 216 67 L 223 67 L 228 63 L 229 61 L 229 53 L 228 51 L 223 47 L 216 47 L 214 48 L 209 54 L 209 60 L 210 61 L 210 63 L 147 125 L 146 125 L 143 122 L 143 120 L 146 115 L 146 113 L 151 103 L 153 96 L 159 85 L 159 83 L 162 78 L 162 76 L 166 69 L 166 67 L 169 62 L 169 60 L 172 55 L 172 53 L 176 46 L 176 44 L 179 39 L 185 39 L 190 36 L 192 32 L 192 27 L 191 26 L 191 24 L 187 20 L 185 19 L 178 19 L 176 20 L 173 23 L 171 27 L 171 31 L 176 39 L 172 46 L 172 48 L 164 64 L 164 66 L 161 71 L 161 73 L 157 80 L 157 82 L 152 92 L 150 99 L 147 104 L 147 106 L 145 109 L 143 116 L 140 121 L 137 121 L 135 119 L 135 31 L 137 28 L 139 28 L 143 24 L 144 22 L 144 14 L 141 10 L 137 8 Z"/>
  </g>
</svg>
