<svg xmlns="http://www.w3.org/2000/svg" width="128" height="128" viewBox="0 0 128 128" fill="none">
  <defs>
    <linearGradient id="asterA" x1="24" y1="14" x2="104" y2="112" gradientUnits="userSpaceOnUse">
      <stop offset="0" stop-color="#D14BFF"/>
      <stop offset="0.4" stop-color="#8A4DFF"/>
      <stop offset="0.7" stop-color="#4A6BFF"/>
      <stop offset="1" stop-color="#2FA9F6"/>
    </linearGradient>
  </defs>
  <path fill-rule="evenodd" clip-rule="evenodd" fill="url(#asterA)"
    d="M64 12c6 0 10.4 3 13.4 9.6l31 68.8c4 8.8-.4 17.6-9.4 17.6-6.8 0-11.8-4-14.8-11l-5.6-12.8c-3.4-7.8-8-11.6-14.6-11.6s-11.2 3.8-14.6 11.6L43.8 97c-3 7-8 11-14.8 11-9 0-13.4-8.8-9.4-17.6l31-68.8C53.6 15 58 12 64 12Zm0 26-13.6 30c3.6-3.6 8.2-5.4 13.6-5.4s10 1.8 13.6 5.4L64 38Z"/>
</svg>
