<svg xmlns="http://www.w3.org/2000/svg" width="1200" height="630" viewBox="0 0 1200 630" fill="none">
  <defs>
    <linearGradient id="bg" x1="0" y1="0" x2="1200" y2="630" gradientUnits="userSpaceOnUse">
      <stop offset="0" stop-color="#16183A"/>
      <stop offset="1" stop-color="#1E2148"/>
    </linearGradient>
    <linearGradient id="mark" x1="470" y1="150" x2="730" y2="470" gradientUnits="userSpaceOnUse">
      <stop offset="0" stop-color="#5570F5"/>
      <stop offset="0.5" stop-color="#3550EE"/>
      <stop offset="1" stop-color="#2FA9F6"/>
    </linearGradient>
    <linearGradient id="accent" x1="0" y1="0" x2="1200" y2="0" gradientUnits="userSpaceOnUse">
      <stop offset="0" stop-color="#0B2AE0"/>
      <stop offset="1" stop-color="#3550EE"/>
    </linearGradient>
    <radialGradient id="glow" cx="600" cy="215" r="320" gradientUnits="userSpaceOnUse">
      <stop offset="0" stop-color="#0B2AE0" stop-opacity="0.35"/>
      <stop offset="1" stop-color="#0B2AE0" stop-opacity="0"/>
    </radialGradient>
  </defs>
  <rect width="1200" height="630" fill="url(#bg)"/>
  <rect width="1200" height="630" fill="url(#glow)"/>
  <rect x="0" y="0" width="1200" height="6" fill="url(#accent)"/>
  <!-- Aster mark (eight-point star) -->
  <g transform="translate(600,214) scale(1.63) translate(-250.9 -296.1)" fill="url(#mark)"><path d="M251.08,334.83c1.9.32,3.12,1.87,3.06,3.75-.04,1.23-.67,2.28-1.58,2.87-1.08.69-2.39.75-3.55.22-1.49-.68-2.22-2.24-1.96-3.85.25-1.5,1.47-2.76,3.15-2.97l.02-30.97c-.48-.2-.93-.23-1.52-.33l-11.1,28.88c1.01.68,1.56,1.72,1.63,2.76.08,1.17-.35,2.25-1.25,3-1.33,1.12-3.19,1.04-4.48.01s-1.66-2.94-.89-4.42,2.5-2.17,4.19-1.73l.86-2.32,10.22-26.54-1.71-1.04-20.69,23.25c1.28,1.69,1.01,4.03-.68,5.25-1.48,1.06-3.5.8-4.68-.48s-1.26-3.36-.11-4.75,3.16-1.73,4.8-.62l20.72-23.29c-.48-.5-.78-.9-1.1-1.49l-28.61,13.54c.52,2.14-.79,4.21-2.89,4.51-2.18.32-4.11-1.28-4.13-3.53-.02-1.66,1.09-3.05,2.52-3.47,1.65-.48,3.25.14,4.15,1.65l12.9-6.12,15.64-7.38-.4-1.68-31.2,1.08c-.19,1.85-1.64,3.2-3.42,3.27s-3.39-1.14-3.68-2.94c-.34-2.03.91-3.83,2.87-4.21s3.84.93,4.2,2.99l31.14-1.05c.05-.76.07-1.44.31-2.29l-29.4-9.87c-.64,1.53-2.03,2.42-3.61,2.34s-2.87-1.04-3.32-2.59c-.66-2.28.85-4.51,3.09-4.75,2.36-.25,4.32,1.63,4.06,4.13l29.48,9.88c.38-.77.78-1.35,1.29-2.01l-14.99-13.35-8.13-7.2c-1.05,1.05-2.4,1.34-3.78.94-1.14-.33-2.14-1.34-2.41-2.65-.35-1.66.35-3.25,1.78-4.05,1.39-.79,3.17-.57,4.32.56s1.42,2.97.62,4.49l23.24,20.66,1.62-1.07-8.47-18.77-4.23-9.49c-1.49.52-3.09.17-4.09-.92s-1.3-2.8-.6-4.23c1.06-2.14,3.93-2.78,5.81-1.29,1.63,1.29,1.75,4.61-.34,6.03l12.74,28.33,1.74-.32v-31.45c-2.08-.28-3.49-1.94-3.35-3.99.09-1.45.92-2.76,2.31-3.31,1.31-.51,2.93-.35,4.04.54.85.68,1.15,1.83,1.18,2.9.05,1.99-1.34,3.58-3.27,3.85l.02,31.38,1.92.41,5.91-13.1,6.92-15.22c-1.47-1.11-1.91-2.94-1.2-4.55.65-1.49,2.23-2.41,3.98-2.15,1.6.24,2.94,1.61,3.09,3.36.11,1.32-.46,2.47-1.37,3.22-1.02.84-2.33.96-3.68.56l-12.82,28.21,1.63,1.06,23.38-20.51c-.79-1.57-.47-3.35.74-4.48,1.2-1.12,3.1-1.31,4.52-.35,1.01.68,1.53,1.8,1.57,2.94.04,1.2-.47,2.37-1.5,3.1-1.51,1.07-3.51.83-4.81-.46l-23.23,20.37,1.23,1.93,29.57-9.61c-.18-1.97,1.06-3.67,2.91-4.01s3.71.74,4.16,2.66-.52,3.79-2.34,4.36-3.78-.25-4.51-2.15l-9.04,2.97-20.39,6.61.31,2.41,31.25,1.05c.26-1.55,1.38-2.65,2.72-2.95,1.46-.33,2.96.23,3.76,1.51s.81,2.91-.12,4.15c-.84,1.12-2.32,1.7-3.82,1.3-1.37-.37-2.43-1.56-2.6-3.12l-31.24-1.05-.45,1.65,15.37,7.34,13.06,6.28c.83-1.25,2.09-1.88,3.52-1.72,1.29.15,2.48,1.04,2.93,2.39.49,1.48.02,3.04-1.13,3.97-1.21.98-2.93,1.03-4.22.18s-1.83-2.42-1.43-4l-28.51-13.64c-.3.56-.61.95-1.09,1.51l20.38,23.37c1.25-.83,2.77-.9,3.97-.11,1.94,1.28,2.21,4.03.52,5.64-1.36,1.3-3.49,1.21-4.82,0-1.38-1.26-1.51-3.41-.32-4.94l-20.38-23.32-1.72,1.1,10.69,28.81c1.34-.3,2.61,0,3.47.83.93.91,1.27,2.16.98,3.46-.36,1.56-1.75,2.62-3.23,2.68-1.62.07-3.01-.92-3.51-2.35-.54-1.56,0-3.26,1.48-4.23l-4.85-13.14-5.87-15.73-1.79.27-.03,30.97Z"/></g>
  <text x="600" y="360" text-anchor="middle" font-family="'Plus Jakarta Sans', 'Segoe UI', system-ui, sans-serif" font-size="92" font-weight="800" letter-spacing="-2" fill="#FFFFFF">Aster</text>
  <text x="600" y="430" text-anchor="middle" font-family="'Inter', 'Segoe UI', system-ui, sans-serif" font-size="34" font-weight="600" fill="#AEB0CE">AI recruitment platform for growing teams</text>
  <text x="600" y="505" text-anchor="middle" font-family="'Inter', 'Segoe UI', system-ui, sans-serif" font-size="24" font-weight="500" fill="#7E80A6">Screen every resume · Rank applicants · Automate scheduling</text>
</svg>
