<svg xmlns="http://www.w3.org/2000/svg" width="1200" height="630" viewBox="0 0 1200 630" fill="none">
  <defs>
    <linearGradient id="bg" x1="0" y1="0" x2="1200" y2="630" gradientUnits="userSpaceOnUse">
      <stop offset="0" stop-color="#16183A"/>
      <stop offset="1" stop-color="#1E2148"/>
    </linearGradient>
    <linearGradient id="mark" x1="470" y1="150" x2="730" y2="470" gradientUnits="userSpaceOnUse">
      <stop offset="0" stop-color="#5570F5"/>
      <stop offset="0.5" stop-color="#3550EE"/>
      <stop offset="1" stop-color="#2FA9F6"/>
    </linearGradient>
    <linearGradient id="accent" x1="0" y1="0" x2="1200" y2="0" gradientUnits="userSpaceOnUse">
      <stop offset="0" stop-color="#0B2AE0"/>
      <stop offset="1" stop-color="#3550EE"/>
    </linearGradient>
    <radialGradient id="glow" cx="600" cy="215" r="320" gradientUnits="userSpaceOnUse">
      <stop offset="0" stop-color="#0B2AE0" stop-opacity="0.35"/>
      <stop offset="1" stop-color="#0B2AE0" stop-opacity="0"/>
    </radialGradient>
  </defs>
  <rect width="1200" height="630" fill="url(#bg)"/>
  <rect width="1200" height="630" fill="url(#glow)"/>
  <rect x="0" y="0" width="1200" height="6" fill="url(#accent)"/>
  <!-- Aster mark (eight-point star) -->
  <g transform="translate(600,214) scale(0.92)" fill="url(#mark)">
    <path d="M0 -48 Q3 -5.196 41.57 -24 Q6 0 41.57 24 Q3 5.196 0 48 Q-3 5.196 -41.57 24 Q-6 0 -41.57 -24 Q-3 -5.196 0 -48 Z"/>
  </g>
  <text x="600" y="360" text-anchor="middle" font-family="'Plus Jakarta Sans', 'Segoe UI', system-ui, sans-serif" font-size="92" font-weight="800" letter-spacing="-2" fill="#FFFFFF">Aster</text>
  <text x="600" y="430" text-anchor="middle" font-family="'Inter', 'Segoe UI', system-ui, sans-serif" font-size="34" font-weight="600" fill="#AEB0CE">AI recruitment platform for growing teams</text>
  <text x="600" y="505" text-anchor="middle" font-family="'Inter', 'Segoe UI', system-ui, sans-serif" font-size="24" font-weight="500" fill="#7E80A6">Screen every resume · Rank applicants · Automate scheduling</text>
</svg>
